<?xml version="1.0" standalone="no"?>
<!DOCTYPE svg PUBLIC "-//W3C//DTD SVG 20010904//EN"
 "http://www.w3.org/TR/2001/REC-SVG-20010904/DTD/svg10.dtd">
<svg version="1.0" xmlns="http://www.w3.org/2000/svg"
 width="1283.000000pt" height="653.000000pt" viewBox="0 0 1283.000000 653.000000"
 preserveAspectRatio="xMidYMid meet">
<metadata>
Created by potrace 1.16, written by Peter Selinger 2001-2019
</metadata>
<g transform="translate(0.000000,653.000000) scale(0.100000,-0.100000)"
fill="#000000" stroke="none">
<path d="M1310 6421 l0 -69 173 -4 c160 -3 175 -5 221 -28 61 -31 87 -64 97
-127 10 -63 10 -3353 0 -3416 -10 -63 -36 -96 -97 -127 -46 -24 -60 -25 -236
-28 l-188 -4 0 -69 0 -70 883 4 c966 4 985 5 1300 67 81 17 149 30 152 30 3 0
5 -16 5 -35 l0 -35 640 0 640 0 0 60 0 60 -95 0 c-244 0 -355 79 -355 252 0
100 14 131 101 230 170 192 299 440 369 706 l11 42 720 -2 721 -3 189 -500
c206 -543 217 -583 179 -643 -36 -58 -93 -75 -257 -80 l-143 -4 0 -59 0 -59
745 0 745 0 0 59 0 59 -117 4 c-132 5 -200 25 -277 77 -101 70 -76 12 -786
1801 -364 916 -665 1668 -669 1672 -4 5 -121 -15 -261 -43 l-255 -51 -219
-521 c-121 -287 -229 -544 -241 -571 l-21 -48 -23 118 c-64 331 -210 620 -417
829 -287 288 -714 483 -1229 559 -209 31 -377 36 -1187 36 l-818 0 0 -69z
m1728 -82 c556 -60 969 -324 1161 -740 136 -297 204 -734 187 -1209 -23 -650
-158 -1066 -430 -1328 -299 -287 -797 -457 -1289 -439 -171 6 -232 23 -294 82
l-43 42 0 1729 c0 1685 1 1730 19 1760 25 41 109 82 203 99 90 16 355 19 486
4z m2867 -1271 c147 -370 305 -766 350 -880 l83 -208 -689 0 c-545 0 -689 3
-689 13 0 6 4 39 10 72 5 33 14 101 20 151 9 86 22 120 294 770 156 373 291
696 299 717 36 85 33 91 322 -635z"/>
<path d="M9764 3267 c-27 -23 -29 -30 -28 -90 1 -52 8 -79 36 -138 65 -138
289 -450 455 -634 l46 -50 -7 75 c-11 119 -52 307 -92 421 -86 249 -216 415
-340 435 -34 5 -45 2 -70 -19z"/>
<path d="M11064 2589 c-126 -281 -230 -515 -232 -520 -4 -10 45 4 86 25 161
83 291 370 351 773 18 123 31 233 26 233 -1 0 -105 -230 -231 -511z"/>
<path d="M10284 2051 c0 -302 -10 -425 -60 -751 -49 -316 -144 -728 -248
-1075 -24 -82 -44 -151 -42 -152 2 -2 865 1927 882 1971 6 15 4 17 -14 12 -12
-4 -47 -2 -79 3 -111 21 -249 102 -376 221 l-62 58 -1 -287z"/>
<path d="M1260 1715 l0 -266 208 3 c224 3 241 7 305 67 95 87 102 269 16 374
-62 75 -87 82 -321 85 l-208 3 0 -266z m375 133 c55 -43 71 -137 36 -214 -29
-65 -50 -74 -163 -74 l-98 0 0 155 0 155 99 0 c86 0 102 -3 126 -22z"/>
<path d="M1900 1715 l0 -265 75 0 75 0 0 265 0 265 -75 0 -75 0 0 -265z"/>
<path d="M2100 1972 c0 -10 123 -314 164 -407 15 -33 36 -70 48 -82 41 -44
178 -54 249 -18 35 18 86 128 218 463 l21 52 -83 0 -82 0 -39 -98 c-90 -224
-139 -332 -150 -332 -6 0 -51 97 -101 215 l-90 215 -77 0 c-43 0 -78 -4 -78
-8z"/>
<path d="M2917 1966 c-71 -26 -107 -76 -107 -148 0 -24 7 -56 15 -72 14 -26
14 -33 0 -62 -36 -76 -8 -165 65 -208 32 -19 54 -21 263 -24 l227 -3 0 55 0
56 -193 0 c-182 0 -195 1 -212 20 -15 16 -17 26 -9 48 l9 27 203 3 202 2 0 55
0 55 -193 0 c-175 0 -196 2 -210 18 -22 24 -21 45 1 65 16 15 46 17 210 17
l192 0 0 55 0 55 -212 0 c-153 -1 -224 -5 -251 -14z"/>
<path d="M3450 1926 l0 -56 193 0 c175 0 196 -2 210 -18 22 -24 21 -45 0 -65
-14 -12 -49 -16 -158 -19 -157 -4 -191 -15 -225 -71 -17 -27 -20 -51 -20 -140
l0 -108 73 3 72 3 3 63 c2 45 7 62 15 59 43 -16 397 -127 406 -127 7 0 11 22
11 58 l0 58 -137 46 -138 46 65 1 c121 2 200 65 200 161 0 56 -29 104 -80 134
-32 19 -54 21 -262 24 l-228 3 0 -55z"/>
<path d="M4207 1966 c-131 -47 -147 -210 -27 -280 30 -18 57 -22 193 -26 125
-4 160 -8 167 -20 15 -23 12 -45 -8 -63 -16 -15 -46 -17 -210 -17 l-192 0 0
-55 0 -55 218 0 c238 0 269 7 322 64 22 24 25 37 25 96 0 59 -3 72 -25 96 -49
53 -91 64 -246 64 -124 0 -143 2 -157 18 -22 24 -21 45 1 65 16 15 46 17 210
17 l192 0 0 55 0 55 -212 0 c-153 -1 -224 -5 -251 -14z"/>
<path d="M4730 1715 l0 -265 75 0 75 0 0 265 0 265 -75 0 -75 0 0 -265z"/>
<path d="M4920 1925 l0 -55 80 0 80 0 0 -210 0 -210 70 0 70 0 0 210 0 210 80
0 80 0 0 55 0 55 -230 0 -230 0 0 -55z"/>
<path d="M5547 1966 c-71 -26 -107 -76 -107 -148 0 -24 7 -56 15 -72 14 -26
14 -33 0 -62 -36 -76 -8 -165 65 -208 32 -19 54 -21 263 -24 l227 -3 0 55 0
56 -193 0 c-182 0 -195 1 -212 20 -15 16 -17 26 -9 48 l9 27 203 3 202 2 0 55
0 55 -193 0 c-175 0 -196 2 -210 18 -22 24 -21 45 1 65 16 15 46 17 210 17
l192 0 0 55 0 55 -212 0 c-153 -1 -224 -5 -251 -14z"/>
<path d="M4384 1020 c-47 -15 -69 -46 -114 -170 -39 -106 -120 -340 -120 -347
0 -2 28 -3 63 -3 l63 0 14 43 15 42 135 0 135 0 15 -42 14 -43 64 0 c57 0 63
2 57 18 -3 9 -34 96 -67 192 -76 221 -100 274 -130 294 -31 20 -104 28 -144
16z m98 -180 c15 -41 28 -78 28 -82 0 -5 -31 -8 -70 -8 -38 0 -70 3 -70 8 0 4
12 42 27 85 19 54 32 77 43 75 8 -2 27 -37 42 -78z"/>
<path d="M4762 848 c3 -168 5 -187 26 -226 29 -54 89 -98 153 -111 27 -6 106
-11 174 -11 l125 0 0 55 0 55 -130 0 c-146 0 -170 7 -203 59 -20 33 -22 51
-25 199 l-4 162 -60 0 -60 0 4 -182z"/>
<path d="M5280 975 l0 -55 65 0 65 0 0 -210 0 -210 60 0 60 0 0 210 0 210 65
0 65 0 0 55 0 55 -190 0 -190 0 0 -55z"/>
<path d="M5813 1019 c-40 -12 -79 -58 -93 -111 -9 -33 -8 -50 5 -91 15 -47 15
-54 0 -103 -19 -62 -9 -115 31 -163 36 -43 77 -51 267 -51 l167 0 0 55 0 55
-163 0 c-172 0 -187 4 -187 46 0 54 -1 54 181 54 l169 0 0 55 0 55 -163 0
c-175 0 -187 3 -187 50 0 47 12 50 187 50 l163 0 0 55 0 55 -172 -1 c-95 0
-187 -5 -205 -10z"/>
<path d="M6260 975 l0 -55 165 0 c164 0 165 0 176 -24 8 -17 8 -29 0 -45 -11
-19 -20 -21 -119 -21 -83 0 -116 -5 -149 -19 -62 -29 -73 -58 -73 -196 l0
-115 55 0 55 0 0 65 c0 36 4 65 9 65 7 0 244 -85 334 -119 l28 -11 -3 61 -3
61 -120 49 -120 48 55 1 c142 1 220 113 159 231 -34 68 -72 79 -276 79 l-173
0 0 -55z"/>
<path d="M6889 1018 c-21 -5 -48 -21 -60 -35 -24 -24 -24 -29 -27 -254 l-3
-229 60 0 61 0 2 207 c3 187 5 208 20 211 27 5 54 -48 103 -204 29 -91 53
-148 68 -162 66 -62 166 -65 224 -7 l33 33 0 226 0 226 -60 0 -60 0 0 -210 0
-210 -24 0 c-28 0 -31 8 -90 200 -57 186 -123 242 -247 208z"/>
<path d="M7654 1020 c-47 -15 -69 -46 -114 -170 -39 -106 -120 -340 -120 -347
0 -2 29 -3 63 -3 l64 0 12 40 12 40 129 0 c114 0 129 2 132 17 2 10 12 -8 23
-40 l19 -57 64 0 c57 0 63 2 57 18 -3 9 -34 96 -67 192 -76 221 -100 274 -130
294 -31 20 -104 28 -144 16z m70 -108 c3 -5 18 -45 35 -90 l30 -82 -79 0 -79
0 32 90 c28 81 46 105 61 82z"/>
<path d="M8010 975 l0 -55 65 0 65 0 0 -210 0 -210 60 0 60 0 0 210 0 210 65
0 65 0 0 55 0 55 -190 0 -190 0 0 -55z"/>
<path d="M8440 765 l0 -265 60 0 60 0 0 265 0 265 -60 0 -60 0 0 -265z"/>
<path d="M8606 1008 c21 -70 138 -396 152 -426 27 -55 63 -77 131 -77 72 0
106 21 134 83 19 44 157 428 157 438 0 2 -29 4 -64 4 l-64 0 -73 -210 c-52
-147 -78 -210 -89 -210 -11 0 -37 63 -90 210 l-75 210 -63 0 c-61 0 -63 -1
-56 -22z"/>
<path d="M9283 1019 c-40 -12 -79 -58 -93 -111 -9 -33 -8 -50 5 -91 15 -47 15
-54 0 -103 -19 -62 -9 -115 31 -163 36 -43 77 -51 267 -51 l167 0 0 55 0 55
-163 0 c-172 0 -187 4 -187 46 0 54 -1 54 181 54 l169 0 0 55 0 55 -163 0
c-175 0 -187 3 -187 50 0 47 12 50 187 50 l163 0 0 55 0 55 -172 -1 c-95 0
-187 -5 -205 -10z"/>
<path d="M1460 130 l0 -60 4190 0 4190 0 0 60 0 60 -4190 0 -4190 0 0 -60z"/>
</g>
</svg>
