<?xml version="1.0" standalone="no"?>
<!DOCTYPE svg PUBLIC "-//W3C//DTD SVG 20010904//EN"
 "http://www.w3.org/TR/2001/REC-SVG-20010904/DTD/svg10.dtd">
<svg version="1.0" xmlns="http://www.w3.org/2000/svg"
 width="960.000000pt" height="639.000000pt" viewBox="0 0 960.000000 639.000000"
 preserveAspectRatio="xMidYMid meet">
<metadata>
Created by potrace 1.16, written by Peter Selinger 2001-2019
</metadata>
<g transform="translate(0.000000,639.000000) scale(0.100000,-0.100000)"
fill="#000000" stroke="none">
<path d="M5862 5609 c-113 -17 -170 -45 -242 -118 -176 -178 -240 -462 -160
-710 19 -62 20 -67 4 -114 -18 -54 -13 -77 5 -25 l12 33 19 -22 18 -23 58 20
c33 10 70 21 84 23 14 3 37 8 52 12 21 5 29 3 34 -9 10 -27 40 -18 69 20 30
39 52 50 140 70 76 17 75 17 69 0 -7 -18 34 -32 49 -17 9 9 6 13 -11 17 -12 4
-22 10 -22 14 0 12 87 33 115 28 20 -4 25 -2 23 11 -2 11 -18 18 -46 22 -54 7
-69 21 -47 42 13 13 13 20 3 36 -13 21 -45 34 -61 24 -6 -3 -3 -11 7 -19 15
-11 12 -13 -26 -22 -24 -6 -61 -17 -83 -26 -22 -8 -50 -15 -62 -16 -13 0 -23
-5 -23 -11 0 -5 -8 -9 -17 -7 -10 1 -24 -1 -30 -5 -9 -6 -13 0 -13 21 0 33
-13 48 -50 55 l-25 4 23 8 c21 7 21 8 5 21 -15 11 -16 16 -6 33 8 13 10 37 6
67 -4 34 -2 48 8 55 11 7 11 9 -3 9 -10 0 -18 7 -18 16 0 12 6 15 21 11 18 -5
20 -2 15 16 -14 46 -16 87 -5 87 6 0 9 9 6 20 -3 11 -1 18 3 15 5 -3 15 4 23
16 12 16 19 18 33 11 47 -24 97 -42 102 -38 3 3 11 1 19 -6 10 -8 19 -8 36 1
18 10 22 20 21 54 -1 24 0 30 3 15 5 -29 23 -39 23 -13 0 24 45 29 79 9 25
-15 32 -15 46 -4 13 11 18 10 30 -6 8 -11 14 -14 15 -6 0 21 20 13 30 -13 5
-14 14 -25 20 -25 5 0 10 -7 10 -15 0 -21 18 -19 22 3 3 13 7 11 18 -12 17
-33 36 -44 43 -24 2 7 3 3 1 -9 -2 -11 -7 -29 -10 -40 -6 -14 -4 -16 6 -6 7 6
19 9 26 6 8 -3 14 1 14 8 0 8 3 25 5 39 5 22 4 23 -5 5 -8 -15 -8 -10 -4 23 5
35 -1 61 -27 130 -41 108 -106 178 -196 212 -67 25 -188 33 -281 19z"/>
<path d="M1138 5536 c-55 -21 -107 -66 -119 -103 -5 -18 -41 -68 -79 -111 -38
-44 -78 -98 -88 -119 -39 -76 -54 -234 -33 -357 6 -32 8 -78 4 -102 -6 -45 14
-204 26 -204 4 0 12 5 18 11 8 8 13 8 18 -1 4 -7 -1 -14 -14 -17 -28 -7 -26
-18 8 -42 19 -14 31 -33 36 -58 4 -21 18 -62 32 -91 14 -29 22 -59 19 -67 -7
-19 -125 -96 -191 -125 -64 -29 -64 -29 -121 -68 -31 -22 -55 -32 -71 -29 -26
5 -63 -22 -63 -47 0 -9 -5 -16 -10 -16 -14 0 -89 -79 -101 -105 -5 -11 -13
-27 -18 -35 -24 -37 -40 -83 -34 -94 4 -6 6 -51 5 -101 -2 -49 6 -184 18 -300
12 -115 22 -248 23 -295 1 -54 4 -74 8 -55 5 22 7 25 9 10 8 -52 7 -96 -1
-101 -5 -3 -9 4 -9 15 0 11 -12 34 -27 51 l-26 32 -12 -22 -12 -23 -20 20
c-11 11 -23 27 -27 34 -4 9 -8 10 -11 3 -3 -6 -12 -20 -20 -30 -14 -18 -14
-18 -15 9 0 25 -3 27 -40 27 -29 0 -40 4 -40 15 0 11 -11 15 -40 15 -34 0 -41
4 -46 25 -8 31 -27 32 -42 3 l-11 -23 0 23 c-1 12 -5 22 -11 22 -7 0 -10 -335
-10 -986 0 -794 2 -985 13 -981 16 6 418 135 481 154 50 15 57 13 69 -21 5
-14 125 -25 284 -25 138 -1 186 5 164 18 -18 12 13 46 34 38 14 -6 15 -10 5
-22 -7 -9 -11 -18 -8 -20 6 -6 42 21 100 78 48 46 74 54 61 19 -3 -9 -3 -14 1
-10 5 4 18 -2 30 -14 41 -40 139 -72 158 -52 5 5 -1 28 -25 97 -5 15 -15 27
-21 27 -6 0 -4 5 4 10 10 6 11 10 3 10 -7 0 -13 6 -13 14 0 7 -7 27 -15 42 -8
16 -15 38 -15 49 0 27 29 67 42 59 7 -4 8 -2 4 4 -10 16 3 15 38 -3 17 -9 32
-12 35 -6 3 5 13 11 21 14 8 2 2 3 -13 1 -17 -2 -26 0 -22 6 8 14 52 13 78 -2
12 -6 41 -10 63 -9 25 1 45 -3 50 -10 5 -8 3 -10 -7 -4 -11 6 -11 5 -2 -5 9
-10 20 -10 55 -1 24 7 70 17 104 21 33 5 65 10 70 11 14 4 88 -22 99 -35 6 -6
31 -27 57 -46 55 -41 64 -57 43 -80 -17 -19 -8 -35 11 -19 9 7 18 4 33 -12 29
-31 38 -16 18 27 -10 19 -15 39 -12 44 3 5 -3 15 -15 22 -28 18 -26 24 21 42
45 18 75 14 84 -12 8 -24 52 -54 73 -49 15 3 15 5 -3 12 -27 11 -66 55 -59 67
10 16 -19 28 -53 22 -17 -3 -53 -17 -79 -30 l-47 -24 -32 28 c-17 15 -30 29
-28 31 8 10 -78 31 -152 37 -46 4 -86 13 -94 21 -16 17 -21 14 64 41 l70 21
169 -34 c94 -19 174 -35 179 -35 5 0 7 -7 5 -16 -5 -25 60 -87 104 -101 33 -9
39 -9 34 3 -3 8 1 14 10 14 8 0 17 -7 20 -15 4 -11 13 -13 28 -9 19 6 19 5 -4
-16 -18 -15 -33 -20 -52 -16 -23 5 -28 2 -28 -14 0 -11 -4 -28 -9 -38 -5 -9
-16 -42 -25 -72 -14 -48 -54 -110 -71 -110 -3 0 -5 8 -5 18 0 14 -2 15 -9 2
-6 -8 -7 -18 -5 -22 3 -4 0 -8 -5 -8 -6 0 -11 -4 -11 -10 0 -5 13 -7 30 -3 29
5 30 4 30 -32 0 -36 1 -37 19 -21 10 9 25 14 35 10 9 -3 16 -1 16 5 0 6 -10
11 -22 11 -39 0 -14 8 42 13 30 3 49 3 43 0 -25 -10 -12 -21 15 -14 30 9 38 7
104 -24 l47 -23 73 24 c40 13 81 24 93 24 21 0 205 42 290 66 49 14 380 84
397 84 5 0 7 -4 4 -8 -3 -5 0 -26 6 -46 20 -65 12 -64 488 -96 168 -11 278
-24 303 -35 13 -5 17 -2 17 15 0 11 -4 19 -8 16 -14 -8 -155 21 -202 42 -25
11 -64 28 -88 38 -24 10 -52 28 -62 42 -11 13 -24 21 -30 17 -6 -4 -22 5 -36
20 -13 14 -24 20 -24 13 0 -7 9 -19 20 -26 11 -7 20 -16 20 -20 0 -9 -166 -8
-209 2 -23 6 -36 4 -41 -4 -10 -16 -82 -18 -88 -2 -2 7 -7 10 -12 7 -11 -7
-21 68 -10 79 7 7 10 2 10 -14 0 -13 3 -20 7 -17 3 4 16 -5 29 -18 13 -14 31
-25 41 -24 10 0 13 3 7 5 -7 3 -10 13 -7 24 3 12 -4 24 -22 36 -21 13 -26 23
-22 43 2 14 1 52 -2 84 -4 31 -3 57 1 57 4 0 8 7 8 15 0 8 4 15 10 15 5 0 12
11 16 25 3 14 13 25 20 25 10 0 13 -7 8 -25 -4 -16 -2 -25 6 -25 7 0 10 -7 7
-15 -4 -8 -1 -17 5 -21 7 -4 8 -3 4 4 -4 7 -1 12 9 12 25 0 28 27 5 50 -24 24
-23 48 2 64 13 8 23 8 37 -1 17 -11 24 -8 49 21 16 19 39 39 50 45 36 19 159
11 146 -10 -9 -15 14 -10 56 11 21 11 46 17 54 14 15 -6 51 -83 42 -91 -7 -7
-30 16 -45 45 -6 12 -19 22 -29 22 -11 0 -13 -3 -6 -8 15 -9 59 -109 67 -150
4 -19 16 -46 27 -61 11 -16 17 -31 13 -35 -3 -3 1 -6 10 -6 10 0 17 -8 17 -20
0 -11 4 -20 10 -20 5 0 13 -12 16 -26 4 -17 11 -23 21 -20 8 3 30 6 49 6 23 0
34 5 34 14 0 73 185 53 225 -24 15 -28 15 -34 1 -55 -21 -32 -9 -37 20 -8 17
17 30 22 42 18 9 -4 40 -11 67 -16 69 -11 182 -36 193 -42 4 -4 53 -9 108 -12
179 -10 369 -28 374 -35 3 -4 34 -12 69 -19 66 -13 131 -39 131 -53 0 -4 9
-17 21 -29 15 -15 18 -24 9 -33 -5 -8 -8 -20 -4 -29 4 -12 -4 -17 -43 -22 -26
-3 -70 -10 -98 -16 -27 -6 -70 -13 -95 -16 -25 -3 -50 -9 -56 -14 -24 -20
-339 4 -449 33 -22 6 -53 12 -70 13 -113 9 -163 19 -239 43 -55 19 -87 25 -89
18 -4 -11 25 -22 148 -55 176 -48 396 -72 640 -72 170 0 191 -2 380 -39 110
-22 294 -57 409 -79 114 -22 209 -41 210 -43 45 -63 110 -196 118 -240 4 -27
12 -69 16 -95 5 -27 27 -84 49 -128 32 -63 49 -85 79 -102 46 -25 203 -75 215
-67 5 3 45 -1 90 -7 70 -11 87 -18 117 -46 19 -18 36 -33 38 -33 4 0 -3 63
-11 95 -5 17 -20 46 -35 65 -44 55 -43 109 0 150 18 17 26 31 20 35 -18 11
-10 22 21 29 18 3 28 10 24 16 -5 8 -11 7 -21 -1 -8 -6 -17 -9 -20 -6 -3 3 5
11 18 18 25 14 188 20 188 7 0 -4 -5 -8 -11 -8 -5 0 -7 -4 -4 -10 3 -5 19 -7
35 -3 26 5 30 2 30 -16 0 -11 5 -21 11 -21 5 0 7 -5 3 -12 -4 -7 -3 -8 5 -4
15 10 61 -20 61 -39 0 -7 -9 -17 -20 -20 -11 -3 -20 -13 -20 -21 0 -8 -8 -14
-17 -15 -10 -1 -1 -6 21 -11 29 -8 40 -7 46 2 5 8 10 9 14 2 8 -13 -8 -24 -59
-39 -35 -9 -36 -11 -12 -12 26 -1 40 -21 14 -21 -8 0 -20 -11 -27 -25 -14 -25
-33 -25 -23 0 3 11 -2 15 -17 15 -15 0 -20 -4 -16 -15 3 -8 -4 -21 -15 -28
-20 -14 -20 -14 1 -20 21 -5 37 -33 26 -45 -4 -3 -16 -1 -26 6 -18 11 -20 9
-20 -13 0 -15 6 -25 14 -25 18 0 25 -20 16 -44 -6 -18 -7 -18 -15 5 l-8 24 -4
-22 c-2 -13 -10 -23 -17 -23 -7 0 -25 -13 -41 -30 -23 -24 -26 -32 -15 -45 11
-13 160 -15 1361 -15 l1349 0 -2 561 -3 562 -85 44 c-75 39 -139 92 -140 116
0 5 17 -5 38 -21 20 -16 53 -37 72 -47 19 -9 45 -27 58 -38 l22 -21 20 22 c17
18 20 35 20 127 l0 105 -27 1 c-16 1 -35 2 -43 3 -8 1 -22 6 -30 11 -8 6 -33
15 -55 20 -46 13 -53 37 -12 42 15 2 27 -1 27 -7 0 -15 26 -12 40 5 7 8 27 15
44 15 40 0 59 13 54 36 -3 15 -11 18 -35 17 -47 -4 -49 13 -3 21 42 6 58 36
20 36 -21 0 -70 65 -88 119 -7 19 -12 35 -12 37 0 2 11 -1 25 -6 18 -7 26 -6
33 6 7 12 14 13 35 5 26 -10 27 -9 27 24 0 31 -4 36 -30 42 -44 8 -47 23 -6
23 32 0 36 3 36 25 0 18 -5 25 -19 25 -11 0 -23 5 -27 12 -4 6 -3 8 4 5 5 -4
17 -5 25 -1 20 7 10 39 -16 52 -12 6 -16 11 -9 11 10 1 10 5 0 21 -10 16 -10
24 -1 39 10 15 9 20 -2 25 -22 8 -18 34 5 41 11 3 20 13 20 21 0 8 -9 14 -20
14 -11 0 -20 5 -20 10 0 6 -11 22 -24 35 -14 14 -27 42 -31 67 -9 55 -21 78
-53 105 l-27 23 25 1 c14 0 19 3 13 6 -7 2 -13 11 -13 20 0 11 7 13 33 8 17
-4 37 -12 44 -17 14 -12 63 -18 63 -8 0 11 -47 48 -71 55 -26 8 -86 55 -71 55
5 0 12 -3 16 -7 13 -13 86 -31 86 -22 0 5 4 9 8 9 16 0 46 -76 53 -135 5 -45
6 -27 7 73 0 72 -4 135 -9 138 -5 3 -9 13 -9 23 0 10 -11 26 -25 35 -14 9 -23
21 -20 26 4 6 3 15 -1 21 -4 8 -9 7 -15 -2 -14 -24 -26 2 -39 86 -13 85 -36
155 -51 155 -5 0 -10 -3 -10 -7 -1 -5 -3 -24 -5 -43 -4 -36 -19 -58 -30 -47
-4 4 -7 27 -7 52 0 34 -3 42 -13 34 -16 -13 -44 25 -44 59 0 13 -5 32 -10 42
-6 11 -12 32 -13 47 -5 39 -17 65 -40 86 -27 23 -34 22 -12 -3 13 -15 16 -30
12 -61 -3 -22 -8 -43 -10 -46 -11 -10 -27 9 -27 31 0 26 -24 79 -43 94 -6 6
-23 12 -36 14 -14 1 -26 9 -29 17 -3 8 0 11 6 7 7 -4 6 6 -2 26 -17 39 -32 46
-41 18 -9 -28 -28 -14 -22 17 4 20 -4 34 -34 64 -22 22 -34 39 -28 39 5 0 7 5
3 12 -5 8 -1 9 12 4 12 -4 6 6 -16 27 -35 34 -52 32 -43 -4 4 -13 0 -19 -11
-19 -12 0 -16 10 -16 43 0 48 -24 91 -47 83 -8 -3 -12 -2 -9 3 3 5 -15 12 -40
16 -72 10 -75 13 -72 57 l3 40 -85 52 c-47 28 -91 55 -99 60 -9 6 -12 5 -7 -2
3 -6 -2 -13 -12 -16 -23 -8 -79 19 -62 29 7 4 17 2 23 -4 6 -6 15 -11 19 -11
15 0 8 37 -10 53 -22 20 -33 22 -26 4 3 -8 -3 -20 -13 -28 -16 -12 -17 -12 -7
1 22 28 9 55 -51 110 -83 76 -122 104 -176 124 -26 9 -55 29 -67 46 -13 16
-40 39 -62 50 -21 11 -46 32 -55 47 -9 16 -39 44 -67 63 -121 83 -205 176
-291 323 -32 54 -81 97 -110 97 -26 0 -224 58 -323 94 -98 36 -587 157 -654
163 -50 4 -57 2 -73 -22 -18 -25 -18 -26 13 -88 43 -89 58 -176 65 -392 7
-212 26 -494 55 -780 10 -104 21 -224 25 -265 8 -106 24 -236 36 -295 6 -27
12 -60 14 -71 4 -18 -6 -27 -61 -54 -79 -39 -79 -51 0 -16 51 23 57 23 64 8
14 -27 56 -211 50 -217 -12 -13 -120 -33 -202 -38 -86 -6 -90 -5 -115 19 -14
14 -48 41 -76 58 -49 32 -50 34 -52 87 -1 30 -4 83 -7 119 -6 93 0 113 33 105
28 -7 24 2 -10 19 -21 10 -22 19 -25 141 -8 353 -28 620 -54 724 l-19 74 25
55 c14 31 32 64 40 73 13 15 12 17 -15 22 -30 6 -30 7 -16 34 8 15 28 59 45
98 17 38 42 84 55 102 16 20 22 38 18 49 -4 11 -3 15 5 10 11 -6 31 24 51 77
7 18 5 23 -9 24 -11 1 -21 -10 -28 -34 -6 -20 -9 -40 -6 -45 3 -4 -2 -5 -10
-2 -15 6 -20 -6 -19 -44 1 -7 -1 -11 -5 -8 -3 3 -11 -2 -19 -12 -14 -16 -14
-16 -9 0 3 10 1 20 -4 23 -5 3 -11 -4 -15 -15 -7 -23 -25 -27 -25 -5 0 29 -15
15 -16 -15 -1 -16 3 -27 7 -24 5 3 9 -1 9 -9 0 -8 -7 -18 -16 -21 -14 -5 -14
-8 0 -28 9 -12 16 -27 16 -33 0 -5 -4 -5 -8 2 -5 8 -13 9 -22 3 -12 -8 -12
-10 3 -16 21 -8 13 -24 -12 -24 -13 0 -21 10 -25 33 -8 40 -57 129 -73 135
-18 5 -16 -46 2 -82 16 -29 12 -46 -9 -46 -7 0 -34 -20 -60 -44 -43 -39 -54
-44 -109 -49 -67 -6 -107 9 -107 39 0 12 7 15 27 11 30 -5 53 0 53 14 0 4 -7
6 -15 3 -9 -4 -15 0 -15 8 0 18 64 41 89 33 14 -4 25 1 37 20 13 20 24 25 41
22 21 -4 52 17 41 28 -4 5 -46 -6 -88 -23 -8 -3 -37 -6 -65 -7 -27 -1 -61 -5
-75 -9 -20 -6 -21 -5 -9 3 9 6 26 29 38 52 21 40 21 40 1 34 -11 -3 -20 -2
-20 3 0 14 35 42 53 42 9 0 17 4 17 10 0 6 -9 6 -26 0 -46 -18 -63 -30 -69
-50 -5 -16 -12 -19 -33 -14 -56 14 -65 28 -67 102 -1 38 -5 75 -10 82 -4 7 -2
16 5 20 8 5 10 15 5 26 -5 11 -9 22 -9 27 -1 4 -4 7 -8 7 -5 0 -20 0 -34 0
-20 0 -24 -4 -19 -19 3 -11 1 -22 -5 -26 -5 -3 -10 1 -10 9 0 10 -9 16 -25 16
-29 0 -33 15 -7 29 16 10 15 10 -3 11 -36 0 -138 -30 -192 -57 -46 -24 -50
-28 -35 -39 13 -10 14 -15 5 -25 -10 -9 -8 -18 8 -41 17 -23 28 -28 63 -28 57
0 143 27 155 48 7 12 13 14 21 6 19 -19 -75 -56 -155 -62 l-71 -4 -24 36 c-14
20 -33 36 -44 36 -11 0 -16 5 -13 13 3 8 1 20 -3 28 -7 11 -13 10 -31 -6 -34
-31 -57 -93 -69 -188 -6 -48 -14 -97 -19 -110 -5 -12 -12 -44 -15 -71 -4 -27
-11 -58 -16 -70 -4 -11 -13 -55 -20 -96 -6 -41 -18 -86 -25 -100 -7 -14 -23
-55 -36 -90 -33 -99 -74 -174 -101 -185 -21 -9 -23 -17 -24 -75 0 -38 -16
-127 -37 -215 -58 -239 -60 -246 -59 -274 0 -14 -9 -40 -19 -57 -10 -17 -19
-47 -19 -67 l0 -35 -37 14 c-21 7 -45 13 -54 14 -32 0 -43 27 -26 62 27 59 67
198 67 236 0 51 10 84 24 79 7 -3 11 13 12 45 0 43 5 52 34 77 l34 28 2 157
c2 155 1 157 -21 166 -12 5 -36 32 -53 62 -37 65 -57 92 -101 136 -84 83 -259
130 -391 105 -170 -32 -188 -39 -260 -101 -8 -7 -30 -24 -47 -38 -21 -16 -33
-35 -33 -49 0 -13 -4 -26 -9 -29 -19 -12 -50 -92 -49 -129 0 -22 -4 -43 -9
-48 -5 -5 -5 -52 -1 -106 6 -89 5 -98 -13 -111 -10 -7 -19 -24 -19 -38 0 -27
12 -31 30 -9 7 8 19 15 26 15 17 0 18 -42 2 -58 -9 -9 -7 -12 9 -12 24 0 33
-18 33 -65 0 -21 -6 -35 -17 -39 -18 -7 -41 9 -29 21 4 4 11 1 15 -6 7 -11 10
-11 17 0 4 7 3 14 -4 17 -7 2 -19 11 -28 20 -13 12 -17 13 -24 2 -13 -22 32
-112 65 -130 22 -12 37 -35 60 -94 16 -42 47 -99 67 -127 43 -56 44 -61 23
-92 -14 -22 -18 -23 -177 -21 -140 2 -169 0 -205 -16 l-42 -19 -6 37 c-3 20
-8 45 -10 55 -2 10 1 34 7 53 18 68 -41 234 -83 234 -5 0 -68 33 -138 74 -157
91 -280 151 -351 172 -29 9 -71 30 -92 47 -32 26 -38 36 -37 66 1 20 -2 53 -6
74 -5 25 -4 37 4 37 19 0 12 28 -11 44 -17 12 -19 18 -9 30 21 25 24 116 7
200 -9 44 -20 84 -23 90 -50 92 -155 188 -266 244 -69 34 -76 36 -172 35 -115
-2 -160 -15 -240 -70 -31 -21 -77 -50 -103 -64 -41 -22 -79 -67 -95 -114 -2
-5 -22 5 -45 23 -87 69 -320 167 -454 190 l-43 8 2 59 c4 103 11 128 34 122
16 -4 18 -3 8 9 -17 21 -3 44 28 44 24 1 26 2 10 11 -9 6 -15 15 -11 20 6 11
14 88 14 134 0 16 -8 41 -17 54 -11 17 -17 51 -18 105 -1 45 -6 106 -10 136
-5 30 -9 65 -9 77 -1 11 -4 19 -7 17 -6 -3 -39 67 -39 82 0 3 7 3 16 0 9 -3
12 -2 9 5 -4 5 -2 15 3 22 39 50 12 147 -62 220 -61 60 -105 80 -175 78 -30 0
-60 4 -68 10 -21 18 -172 21 -215 5z m6530 -1421 c22 -11 30 -22 27 -35 -2
-13 2 -20 11 -20 9 0 12 5 8 12 -5 8 4 9 31 5 22 -4 43 -13 47 -22 5 -8 18
-15 30 -15 33 0 76 -54 125 -158 55 -117 73 -167 73 -198 0 -28 8 -30 25 -8
16 22 60 11 76 -18 23 -43 43 -284 26 -318 -5 -11 24 -36 117 -100 156 -106
201 -130 246 -130 33 0 49 -12 154 -111 64 -61 115 -113 113 -115 -2 -2 -41
12 -88 32 -46 19 -106 38 -134 41 -27 3 -62 14 -78 24 -15 11 -32 17 -37 14
-6 -4 -9 -2 -8 3 2 5 -24 33 -57 63 -33 29 -92 84 -132 121 -50 46 -85 70
-113 78 -23 6 -44 9 -47 7 -14 -15 20 -82 61 -118 101 -89 97 -185 -21 -472
l-44 -108 22 -79 c12 -44 19 -87 15 -95 -4 -12 -25 -15 -93 -17 -48 0 -73 -3
-54 -5 39 -5 42 14 -32 -220 -62 -193 -99 -348 -129 -538 -26 -171 -37 -792
-18 -1044 10 -133 10 -165 0 -171 -11 -7 -10 -11 2 -23 8 -9 21 -36 28 -61 10
-37 10 -49 0 -61 -7 -8 -17 -15 -22 -15 -10 0 -68 -24 -101 -41 -21 -11 -33
-6 -48 24 -12 21 -12 21 15 3 39 -25 41 -16 6 26 -18 21 -32 53 -36 79 l-7 44
37 -47 c37 -48 56 -60 56 -35 0 15 -81 97 -96 97 -17 0 -34 41 -42 105 l-8 60
-38 -80 c-28 -60 -38 -96 -41 -144 -2 -34 -6 -66 -10 -69 -9 -9 -88 15 -161
49 -48 23 -96 59 -176 135 -60 57 -114 105 -119 105 -19 3 -24 5 -36 12 -16
10 -188 11 -228 2 -60 -14 -170 -48 -177 -54 -5 -4 6 -52 23 -106 27 -87 37
-106 75 -142 46 -44 47 -59 1 -23 -22 18 -26 18 -31 3 -6 -14 -9 -14 -30 6
-12 11 -25 19 -28 16 -3 -3 -29 8 -57 24 -28 17 -62 33 -76 37 -13 3 -41 22
-61 42 -21 21 -56 44 -78 54 -35 14 -38 17 -21 23 22 8 59 23 91 37 12 6 48
32 80 58 61 49 98 65 237 101 133 35 237 18 309 -49 43 -40 41 -22 -3 41 -22
31 -38 57 -35 57 3 0 103 -18 222 -40 206 -38 292 -49 268 -32 -14 9 -23 54
-29 144 -3 38 -10 79 -15 93 -9 23 -8 24 15 15 72 -27 125 -75 169 -153 19
-34 31 -46 38 -39 7 7 19 7 37 1 23 -9 24 -8 11 5 -8 8 -22 16 -30 18 -8 2
-26 19 -39 38 -56 83 -122 136 -227 184 -103 47 -126 61 -132 75 -11 28 20
279 74 601 31 179 61 372 69 430 8 58 18 134 24 170 6 36 13 93 17 127 l6 61
-38 -13 c-42 -15 -114 -20 -114 -7 0 4 12 21 26 37 38 44 54 80 61 136 8 69
27 65 112 -28 58 -65 80 -82 131 -101 74 -28 70 -31 197 95 314 310 414 528
294 637 -21 19 -21 19 -18 0 7 -35 34 -87 39 -73 3 9 6 8 11 -5 4 -10 3 -15
-3 -11 -6 3 -10 1 -10 -6 0 -8 -4 -8 -15 1 -13 11 -15 2 -15 -69 0 -47 -6 -96
-14 -115 -15 -37 -83 -109 -95 -102 -4 3 -20 -6 -36 -20 -17 -15 -31 -21 -33
-14 -2 6 5 19 17 29 28 25 26 35 -9 48 -16 6 -30 8 -30 4 0 -5 -19 -15 -42
-24 -30 -12 -45 -14 -54 -6 -9 7 -29 8 -61 2 -55 -11 -109 -10 -137 2 -13 6
-21 4 -24 -3 -5 -17 -34 -14 -58 6 -17 13 -21 24 -17 50 3 17 11 32 18 32 7 0
15 6 18 14 4 11 -14 13 -99 13 -119 -1 -132 5 -118 55 8 27 17 35 54 47 57 17
55 16 41 47 -8 19 -17 25 -31 21 -11 -3 -20 -1 -20 4 0 5 9 9 20 9 26 0 85 36
72 44 -6 3 -8 16 -5 27 5 18 3 20 -15 14 -17 -5 -21 -3 -16 8 8 22 54 40 69
27 7 -6 20 -7 30 -4 15 6 15 9 -6 20 -38 21 -59 16 -93 -21 l-32 -35 -55 14
c-47 13 -58 13 -83 0 -37 -18 -36 -18 -36 6 0 13 13 28 34 41 28 16 36 28 42
62 14 82 0 135 -33 123 -7 -3 -13 -1 -13 4 0 6 4 10 8 10 4 0 9 14 10 31 l2
31 -49 -4 c-27 -1 -48 -1 -46 1 6 5 -51 51 -64 51 -6 0 -11 5 -11 10 0 18 -46
29 -86 20 -21 -5 -40 -7 -42 -5 -2 2 13 15 35 29 52 35 88 90 85 131 -2 26 4
40 25 59 16 15 36 29 46 32 9 3 17 11 17 18 0 16 79 76 102 76 10 0 18 4 18 9
0 9 107 45 168 56 17 4 32 11 32 16 0 5 13 9 30 9 16 0 35 6 42 13 7 8 19 12
28 10 9 -2 25 4 36 14 25 21 28 54 5 51 -9 -2 -16 4 -16 12 0 8 -7 20 -15 27
-21 17 1 16 38 -2z m-5032 -50 c-4 -11 3 -17 25 -22 25 -5 28 -8 15 -15 -20
-11 -21 -38 -1 -38 8 0 15 -5 15 -10 0 -6 6 -10 13 -9 24 3 38 -1 33 -10 -4
-5 13 -12 36 -16 43 -7 68 -20 68 -35 0 -4 -17 -4 -37 1 -56 13 -83 11 -90 -6
-7 -20 -5 -22 30 -30 23 -6 26 -5 20 11 -4 12 -3 15 5 10 7 -4 12 -15 12 -24
0 -9 11 -25 25 -35 23 -16 24 -16 34 0 6 10 11 13 11 6 0 -7 10 -22 23 -34
l22 -21 -50 7 c-27 4 -51 11 -53 16 -2 5 -10 9 -18 9 -9 0 -12 -5 -8 -12 5 -8
0 -9 -14 -6 -12 4 -20 3 -17 -2 6 -10 -67 -22 -135 -21 -66 1 -155 23 -155 38
0 6 -4 15 -9 20 -5 5 -6 3 -2 -4 8 -15 -3 -17 -22 -4 -11 6 -10 11 3 25 9 9
25 16 36 16 10 0 19 4 19 9 0 11 -25 32 -36 30 -28 -5 -94 3 -94 11 0 5 18 14
40 20 21 6 42 15 45 20 3 6 17 10 30 10 33 0 41 18 13 29 -21 9 -21 10 -3 12
11 1 33 1 49 0 22 -2 27 1 23 12 -4 10 2 17 19 21 13 4 23 10 23 14 -3 18 3
22 32 22 24 0 30 -4 25 -15z m3462 -30 l62 0 0 -43 c0 -24 -8 -54 -17 -69 -15
-23 -19 -60 -23 -259 -4 -206 -13 -277 -27 -236 -3 6 -10 9 -15 5 -7 -4 -9 1
-6 15 5 16 0 22 -21 27 -14 4 -57 27 -94 52 -65 42 -69 46 -63 76 3 18 13 113
21 212 9 99 17 187 18 195 3 18 11 22 34 13 10 -4 21 0 27 10 7 11 17 14 26
10 8 -4 43 -8 78 -8z m-1601 -188 c7 -4 28 -9 46 -11 19 -2 45 -10 58 -19 13
-10 30 -17 37 -17 8 0 12 -6 8 -15 -4 -11 2 -15 20 -15 14 0 23 -4 19 -9 -3
-5 3 -16 13 -23 24 -17 47 -58 32 -58 -16 0 -12 -14 11 -39 l21 -22 -21 -18
c-12 -11 -34 -24 -50 -31 -16 -6 -32 -21 -35 -33 -6 -23 4 -40 11 -19 3 6 13
12 24 12 10 0 19 4 19 9 0 17 69 53 89 46 19 -6 35 -41 25 -57 -3 -4 -14 -8
-25 -8 -11 0 -17 -5 -14 -10 4 -6 3 -10 -2 -8 -4 1 -26 -2 -48 -6 -23 -4 -52
-3 -68 3 -15 6 -29 6 -32 1 -3 -4 1 -10 7 -13 24 -9 -47 -29 -82 -23 -103 17
-244 26 -254 16 -33 -33 -94 18 -76 64 15 40 75 51 145 28 67 -23 72 -12 10
18 -45 22 -77 23 -132 5 -18 -6 -23 -3 -23 9 0 9 6 16 13 16 6 0 4 5 -6 11 -9
5 -22 7 -29 3 -18 -11 -3 88 16 101 9 7 13 15 9 18 -3 4 6 11 21 17 15 5 29
17 32 25 17 43 167 79 211 52z m-1867 -189 c12 -35 24 -69 26 -75 2 -7 11 -13
19 -13 21 0 40 -20 41 -42 2 -19 1 -20 -61 -24 -64 -5 -88 -5 -125 1 -43 7
-66 -6 -56 -31 5 -13 9 -15 15 -6 5 8 33 11 96 8 79 -4 135 6 135 23 0 3 4 12
9 20 8 13 12 13 27 0 16 -13 17 -12 12 14 -5 26 -4 27 43 27 26 0 54 3 63 6
11 4 16 1 16 -10 0 -9 7 -16 15 -16 8 0 15 -4 15 -10 0 -5 -7 -10 -15 -10 -8
0 -15 -7 -15 -15 0 -8 -6 -15 -12 -15 -7 -1 -23 -9 -35 -19 -18 -15 -22 -26
-17 -48 6 -28 5 -29 -30 -25 -24 3 -36 0 -36 -8 0 -8 -10 -11 -29 -7 -16 3
-53 2 -83 -3 -41 -6 -60 -5 -87 8 -27 12 -39 13 -65 4 -48 -18 -80 -16 -72 4
5 13 2 15 -15 11 -16 -4 -19 -3 -10 6 6 6 11 21 11 34 0 21 -5 23 -47 24 -27
1 -60 0 -75 -1 -30 -2 -36 11 -38 80 -3 71 -2 73 22 50 16 -14 19 -23 11 -28
-6 -4 30 -5 80 -3 81 3 90 1 79 -12 -23 -27 7 -31 36 -6 15 13 28 26 30 29 1
3 18 30 37 59 19 29 35 59 35 67 0 8 6 14 14 14 8 0 23 -27 36 -62z m2980
-138 c0 -65 24 -189 59 -310 55 -192 121 -442 121 -461 0 -10 14 -59 30 -109
17 -50 30 -103 30 -118 0 -16 7 -37 15 -48 17 -22 20 -38 5 -29 -6 4 -8 -5 -5
-22 10 -51 -3 -57 -101 -47 l-88 9 -26 125 c-31 145 -44 180 -94 236 -45 52
-104 80 -181 86 -33 3 -71 10 -83 17 -19 10 -22 17 -17 49 13 76 35 139 56
158 26 23 77 130 117 245 17 47 42 103 56 124 14 21 26 41 26 46 0 4 14 16 30
26 25 15 30 24 30 58 0 29 3 36 10 25 5 -8 10 -35 10 -60z m-1156 -60 c80 -10
97 -21 73 -48 -9 -10 -19 -33 -21 -51 -6 -52 -25 -64 -114 -69 -94 -5 -117 4
-132 56 -14 52 -13 79 2 64 15 -15 218 -17 218 -2 0 6 -7 13 -15 16 -8 4 -12
10 -9 15 5 9 -28 12 -111 10 -32 0 -36 1 -20 9 26 11 45 11 129 0z m256 0
c-11 -7 -12 -10 -2 -10 9 0 11 -7 7 -21 -4 -13 -3 -19 2 -16 5 4 23 2 39 -3
24 -7 25 -8 7 -9 -13 -1 -23 -5 -23 -10 0 -12 84 -22 88 -10 7 17 30 9 36 -13
5 -18 8 -20 15 -9 6 9 6 24 0 38 -14 37 -11 49 11 49 25 0 27 -32 3 -80 -20
-43 -54 -58 -133 -59 -71 0 -96 17 -109 75 -9 41 1 65 32 78 30 12 45 12 27 0z
m-485 -61 c5 -22 3 -34 -6 -40 -11 -7 -10 -9 3 -9 10 0 20 -11 24 -25 3 -14
15 -30 25 -36 25 -13 177 -13 211 0 33 13 65 54 78 102 8 29 16 39 31 39 11 0
18 -4 15 -9 -7 -11 8 -55 26 -77 47 -57 45 -57 137 -52 l87 4 2 -26 c1 -14 -2
-30 -6 -35 -10 -15 -59 -45 -74 -45 -6 0 -21 -9 -33 -20 -18 -17 -27 -19 -48
-11 -15 6 -27 16 -28 23 0 7 -4 4 -8 -7 -5 -12 -4 -23 3 -27 19 -13 1 -18
-105 -28 -57 -5 -116 -13 -131 -16 -18 -4 -28 -2 -28 5 0 6 -11 11 -25 11 -20
0 -24 5 -22 22 2 17 -5 23 -30 29 -18 3 -39 12 -47 18 -7 6 -20 9 -27 6 -9 -3
-21 11 -36 42 -26 58 -32 193 -9 193 8 0 17 -14 21 -31z m2971 -35 c-4 -12 -1
-14 14 -9 15 5 18 3 14 -9 -8 -20 16 -63 26 -46 4 7 10 8 13 3 3 -5 -5 -30
-19 -57 -25 -50 -31 -100 -13 -112 6 -3 9 -15 6 -25 -3 -10 0 -20 6 -22 6 -2
8 -11 3 -22 -6 -16 -9 -17 -16 -5 -8 13 -10 12 -10 -2 0 -10 -8 -22 -19 -27
-16 -9 -17 -7 -13 14 6 32 -11 32 -32 1 -12 -19 -22 -24 -43 -20 -32 6 -53 21
-53 39 0 7 -6 18 -14 24 -8 7 -14 30 -13 56 0 37 4 45 24 50 13 3 23 10 23 15
0 6 8 10 18 10 10 0 34 14 52 30 18 17 38 30 43 30 5 0 7 6 4 13 -4 13 -7 13
-99 16 -51 1 -58 3 -58 21 0 24 22 26 40 5 24 -29 70 -11 70 27 0 13 8 18 26
18 20 0 25 -4 20 -16z m-4506 -29 c0 -8 11 -17 24 -21 23 -5 24 -8 13 -32 -15
-35 -26 -42 -46 -31 -28 15 -105 26 -134 18 -15 -4 -25 -4 -22 1 3 4 -9 13
-25 19 -17 5 -30 14 -30 19 0 12 24 22 51 22 10 0 19 5 19 10 0 6 32 10 75 10
60 0 75 -3 75 -15z m267 -62 c-4 -3 -2 -12 4 -20 9 -9 8 -13 0 -13 -6 0 -11
-5 -11 -11 0 -5 4 -8 8 -5 4 2 8 -15 9 -40 1 -24 -2 -44 -7 -44 -5 0 -8 13 -6
30 2 16 0 27 -5 25 -9 -6 -8 -46 2 -60 4 -5 5 -22 2 -37 -5 -25 -14 -33 -35
-29 -4 0 -5 -6 -1 -15 5 -13 7 -13 14 -2 5 7 9 8 9 3 0 -13 -20 -35 -32 -35
-4 0 -5 8 -2 18 5 13 4 14 -4 3 -12 -17 -4 -44 10 -35 21 13 -21 -85 -50 -118
-16 -19 -38 -25 -27 -9 3 5 1 12 -4 16 -6 3 -8 -4 -6 -16 2 -11 -4 -30 -15
-42 -11 -11 -18 -23 -15 -26 3 -2 12 4 20 15 8 10 15 15 15 9 1 -5 5 -1 10 10
6 14 8 4 8 -35 0 -30 -3 -45 -5 -32 -2 12 -9 22 -14 22 -6 0 -7 -4 -4 -10 3
-5 -4 -11 -17 -11 l-23 -2 23 -4 c12 -2 22 -9 22 -14 0 -6 -4 -7 -10 -4 -5 3
-10 1 -10 -4 0 -6 6 -11 13 -12 6 0 3 -4 -8 -9 l-20 -9 20 -1 20 -1 -20 -9
c-14 -6 -15 -9 -5 -10 12 0 11 -3 -3 -11 -9 -6 -15 -14 -12 -20 4 -5 1 -9 -4
-9 -6 0 -11 12 -11 28 0 21 -2 24 -10 12 -7 -11 -10 2 -10 43 0 32 -4 57 -10
57 -6 0 -9 14 -8 30 1 17 8 30 16 30 8 0 10 -5 5 -12 -11 -19 -12 -38 -2 -38
5 0 9 9 9 21 0 16 4 20 18 15 14 -5 14 -4 -2 9 -11 8 -23 15 -28 15 -4 0 -8 6
-8 13 0 6 -18 25 -40 40 -22 16 -40 31 -40 35 0 8 62 46 72 44 3 -1 12 5 18
13 18 22 29 18 26 -10 -2 -13 1 -22 6 -19 5 3 7 12 4 20 -6 15 4 18 20 7 5 -5
1 0 -9 10 -16 14 -17 20 -7 32 7 9 15 13 18 10 3 -3 12 1 20 8 13 10 15 9 9
-5 -4 -12 1 -21 16 -28 18 -9 20 -9 7 2 -8 7 -15 22 -15 33 1 30 26 75 42 75
8 0 11 5 7 12 -5 7 -2 9 7 6 10 -4 14 3 16 26 2 35 19 86 29 86 4 0 4 -3 1 -7z
m-582 -115 c4 -18 19 -44 34 -58 14 -14 41 -43 59 -65 18 -22 30 -34 26 -27
-9 19 25 1 50 -27 10 -11 22 -19 25 -17 4 3 22 0 41 -5 l35 -9 -37 4 c-22 3
-39 0 -42 -7 -3 -9 -8 -8 -16 3 -10 13 -11 13 -8 0 3 -8 -6 -30 -19 -49 -28
-41 -28 -46 -3 -71 11 -11 16 -20 11 -20 -6 0 -13 5 -16 11 -5 6 -12 4 -22 -8
-13 -17 -13 -16 -3 5 9 17 8 26 -4 37 -8 8 -16 11 -19 7 -2 -4 -3 -2 -1 4 1 6
-3 17 -9 23 -8 8 -8 11 1 11 7 0 -4 24 -23 53 -34 51 -93 237 -75 237 5 0 12
-14 15 -32z m2008 -101 c20 9 25 7 35 -16 17 -37 98 -78 171 -87 76 -8 109
-30 93 -61 -27 -50 -188 -59 -232 -13 -3 3 -14 10 -25 16 -11 6 -22 20 -24 30
-1 10 -9 26 -17 35 -8 8 -17 30 -20 47 -4 18 -10 32 -14 32 -4 0 -11 7 -14 16
-5 14 -4 15 9 4 11 -10 22 -10 38 -3z m517 -293 c0 -9 -6 -14 -12 -11 -7 2
-20 -9 -29 -26 -15 -28 -15 -31 2 -48 29 -29 34 -66 13 -105 -10 -19 -26 -36
-35 -39 -9 -3 -25 -21 -35 -40 -10 -19 -23 -35 -28 -35 -5 0 -1 -7 10 -16 19
-15 18 -15 -3 -11 -13 3 -23 1 -23 -4 0 -5 7 -9 15 -9 19 0 19 -34 0 -53 -8
-8 -11 -17 -8 -21 4 -3 -1 -6 -10 -6 -10 0 -17 -4 -17 -8 0 -4 -9 -8 -20 -9
-25 -2 -26 13 -1 20 14 3 18 11 14 33 -9 47 -18 53 -66 42 -59 -14 -148 -4
-201 22 -42 20 -45 23 -39 53 8 45 13 48 84 53 35 3 73 9 84 13 11 5 36 16 57
25 45 20 53 20 72 0 19 -19 22 -49 4 -38 -8 5 -7 0 2 -11 8 -10 10 -16 3 -12
-15 9 -29 -11 -16 -24 6 -6 18 -1 31 12 15 13 29 18 42 14 27 -9 25 4 -2 15
l-23 9 23 0 c13 1 21 5 18 10 -3 4 3 19 14 31 23 26 25 40 8 41 -7 0 -4 4 7 9
17 7 17 9 3 9 -20 1 -25 21 -5 21 9 0 9 2 -1 9 -11 7 -10 16 7 46 11 21 18 42
15 47 -3 4 6 8 20 8 17 0 26 -6 26 -16z m561 -102 c9 -26 14 -31 25 -22 10 9
14 6 19 -17 4 -15 13 -52 21 -82 9 -29 17 -69 20 -88 2 -19 9 -44 15 -55 20
-38 40 -151 42 -248 2 -53 7 -101 11 -108 4 -7 3 -12 -2 -12 -4 0 -8 -29 -8
-63 1 -41 -4 -70 -13 -81 -12 -14 -11 -19 4 -36 16 -18 16 -20 2 -20 -19 0
-21 -13 -8 -38 5 -10 11 -42 14 -72 2 -30 8 -63 12 -74 5 -11 3 -21 -4 -25 -7
-4 -12 -32 -12 -64 -1 -31 -4 -57 -8 -58 -3 0 -16 -2 -28 -5 -13 -2 -23 0 -23
5 0 5 -8 11 -19 14 -12 3 -21 18 -26 43 -4 22 -11 45 -17 51 -6 7 -8 24 -6 38
4 17 1 25 -8 25 -17 0 -17 -3 -1 41 16 46 10 119 -9 119 -9 0 -14 12 -14 38 0
28 -3 34 -11 22 -8 -12 -10 -10 -8 10 1 14 -1 32 -4 40 -3 8 -14 58 -23 110
-9 52 -20 97 -23 100 -8 6 -34 67 -32 75 1 3 -7 22 -17 43 -43 83 -55 169 -27
192 8 7 15 23 15 37 0 13 11 36 25 50 22 24 24 33 18 84 -5 55 -5 57 18 61 62
10 79 4 90 -30z m-1210 -25 c6 -10 7 -27 4 -37 -4 -12 -2 -20 6 -20 8 0 10
-14 6 -50 -6 -48 -5 -50 18 -50 16 0 25 -6 25 -15 0 -8 4 -15 10 -15 5 0 12
-11 16 -25 3 -14 10 -25 14 -25 5 0 32 -22 62 -50 33 -31 47 -50 37 -50 -9 0
-22 7 -29 15 -7 8 -16 13 -20 10 -5 -3 -11 -1 -15 5 -3 5 -12 10 -18 10 -7 0
-3 -7 7 -15 18 -14 18 -15 1 -22 -11 -4 -20 -2 -23 5 -2 7 -8 10 -13 7 -5 -4
-6 2 -2 11 4 10 2 15 -3 11 -6 -4 -9 5 -6 23 4 25 -1 30 -39 48 -54 24 -89 57
-89 82 0 26 21 70 31 64 15 -9 -1 39 -19 60 -11 12 -18 26 -15 33 6 18 43 11
54 -10z m-369 -84 c20 -43 29 -78 29 -110 0 -43 -6 -171 -10 -215 0 -9 -15
-32 -31 -50 -17 -18 -33 -44 -36 -58 -16 -71 -32 -105 -48 -102 -9 2 -16 -4
-16 -13 0 -8 6 -15 13 -15 6 0 1 -9 -13 -19 -17 -13 -25 -31 -27 -55 -2 -39
-22 -66 -47 -66 -19 0 -21 -11 -5 -27 8 -8 8 -13 0 -17 -6 -4 -11 0 -11 8 0 9
-16 20 -40 27 -35 11 -42 10 -53 -4 -13 -17 -57 -14 -57 5 0 5 -4 7 -9 3 -5
-3 -12 -1 -15 4 -4 5 -2 12 4 16 5 3 10 15 10 26 0 10 7 19 15 19 11 0 14 7
10 23 -2 12 1 51 8 87 10 52 16 64 30 62 13 -2 17 4 17 28 0 17 -5 30 -12 31
-10 0 -10 2 0 6 6 2 12 11 12 19 0 8 9 23 20 34 11 11 20 29 20 40 0 21 18 60
33 71 4 3 7 10 6 15 -5 19 14 116 32 166 10 28 16 54 14 58 -2 4 9 21 26 39
24 27 36 32 59 29 22 -3 30 0 31 11 0 14 1 14 6 1 3 -8 18 -43 35 -77z m-1441
-954 c41 -58 69 -140 67 -199 -1 -50 -2 -51 -5 -12 -2 23 -8 40 -13 37 -5 -3
-7 -17 -4 -30 4 -26 -10 -35 -19 -12 -3 6 -6 2 -6 -11 -1 -14 -5 -20 -12 -17
-6 4 -8 13 -5 21 3 8 1 14 -4 14 -6 0 -10 -4 -10 -10 0 -19 -2 -25 -12 -37 -9
-12 -5 -17 13 -15 4 1 9 -7 11 -16 4 -12 -1 -18 -13 -18 -10 0 -15 4 -12 9 9
16 -20 27 -36 14 -12 -10 -13 -9 -7 8 4 11 12 46 18 78 7 37 15 57 24 57 8 0
14 8 13 18 0 10 -3 12 -6 5 -8 -22 -23 -14 -23 12 0 14 6 28 14 31 18 7 16 68
-3 86 -11 11 -12 9 -2 -9 14 -27 9 -29 -14 -7 -13 14 -14 19 -3 25 20 13 25
11 49 -22z m2859 -46 c27 -16 50 -34 50 -41 0 -22 -20 -53 -31 -47 -5 4 -9 1
-9 -4 0 -6 -7 -11 -15 -11 -8 0 -15 -6 -15 -14 0 -7 -9 -25 -21 -40 -20 -25
-24 -26 -120 -26 -54 0 -99 4 -99 9 0 5 35 39 77 77 42 38 88 81 102 97 14 15
27 27 28 27 2 0 25 -12 53 -27z"/>
<path d="M7453 3550 c-40 -46 -41 -55 -4 -71 17 -7 34 -23 39 -35 8 -15 23
-23 58 -28 70 -9 132 -7 139 5 4 6 17 14 29 19 13 5 2 6 -32 3 -45 -5 -56 -3
-73 16 -14 15 -27 19 -44 15 -31 -8 -32 6 -2 34 27 25 47 28 47 7 0 -16 42
-30 65 -21 23 9 6 36 -24 37 -23 0 -24 1 -6 9 28 12 83 12 87 0 2 -7 11 -5 23
4 18 14 13 15 -63 16 -53 0 -81 4 -77 10 9 14 -21 12 -53 -3 -39 -18 -68 -15
-64 6 4 26 -10 19 -45 -23z"/>
<path d="M7645 3270 c3 -5 23 -19 45 -31 40 -23 51 -43 28 -52 -9 -4 -9 -8 -3
-14 12 -10 38 -54 33 -58 -22 -20 -88 -45 -121 -46 -37 -1 -34 -3 22 -11 52
-7 67 -6 81 7 25 22 40 18 40 -11 0 -22 3 -24 14 -15 11 9 15 9 19 -1 7 -20
17 -4 24 38 3 22 11 42 17 46 7 5 7 14 -1 30 -6 13 -14 31 -17 41 -3 9 -14 17
-25 17 -11 0 -23 5 -26 10 -9 14 -101 60 -120 60 -9 0 -14 -4 -10 -10z"/>
<path d="M1960 1405 c0 -3 15 -22 33 -42 18 -21 48 -64 65 -96 26 -46 30 -61
22 -77 -7 -14 -7 -20 0 -20 14 0 13 -27 -2 -36 -6 -4 -17 1 -24 10 -7 10 -18
15 -24 11 -13 -8 -57 36 -96 95 -20 30 -105 97 -173 135 -23 13 -3 -13 44 -56
24 -22 60 -67 81 -99 21 -33 45 -60 54 -60 23 0 40 -20 40 -46 0 -36 11 -54
31 -54 18 0 21 5 23 39 1 19 26 27 27 9 1 -7 1 -16 0 -20 -4 -25 47 19 60 52
4 8 0 35 -7 60 -17 54 -16 53 -4 45 6 -3 10 -1 10 4 0 6 -7 11 -16 11 -19 0
-36 19 -64 71 -24 45 -47 69 -66 69 -8 0 -14 -2 -14 -5z"/>
<path d="M1596 1333 c-5 -5 10 -26 56 -82 6 -7 27 -34 46 -60 19 -25 42 -50
50 -55 8 -5 32 -24 52 -42 21 -19 43 -34 49 -34 23 0 9 27 -44 83 -53 56 -65
80 -45 92 5 3 6 13 3 21 -4 12 -14 14 -36 10 -29 -6 -64 13 -110 58 -8 8 -17
12 -21 9z"/>
<path d="M1421 1238 c-7 -17 -41 -37 -128 -75 -65 -28 -138 -57 -163 -65 -27
-8 -45 -19 -45 -28 0 -9 7 -14 20 -12 14 3 10 -4 -14 -22 -19 -14 -39 -26 -45
-26 -26 0 10 -15 37 -16 18 0 41 -4 52 -9 11 -4 17 -5 13 0 -8 8 27 74 46 88
7 4 6 10 -4 17 -12 8 -9 10 10 6 90 -17 111 -16 137 4 14 11 22 20 17 20 -24
1 95 49 123 49 39 1 53 -17 27 -36 -18 -14 -18 -14 6 -12 43 4 68 -1 82 -13
28 -27 99 -71 104 -65 4 3 -17 33 -46 66 -44 51 -50 62 -41 80 7 12 7 22 1 26
-5 3 -7 12 -3 20 3 10 -1 15 -15 15 -12 0 -22 -9 -25 -21 -3 -12 -10 -18 -17
-14 -6 3 -25 8 -42 10 -17 3 -41 11 -54 20 -23 15 -25 14 -33 -7z"/>
<path d="M3401 969 c-56 -5 -89 -13 -102 -25 -20 -18 -19 -18 3 -31 13 -7 31
-12 42 -13 10 0 31 -11 48 -25 33 -28 63 -32 72 -10 6 18 29 19 54 4 13 -8 49
-7 137 3 l120 15 -60 27 c-33 15 -70 32 -82 38 -13 6 -33 7 -50 3 -42 -12 -63
-13 -69 -3 -3 4 3 8 13 8 10 0 25 5 33 10 18 12 -33 11 -159 -1z"/>
<path d="M0 155 l0 -155 412 0 c226 0 409 2 407 4 -4 5 -807 306 -815 306 -2
0 -4 -70 -4 -155z"/>
</g>
</svg>
