<?xml version="1.0" standalone="no"?>
<!DOCTYPE svg PUBLIC "-//W3C//DTD SVG 20010904//EN"
 "http://www.w3.org/TR/2001/REC-SVG-20010904/DTD/svg10.dtd">
<svg version="1.0" xmlns="http://www.w3.org/2000/svg"
 width="287.000000pt" height="182.000000pt" viewBox="0 0 287.000000 182.000000"
 preserveAspectRatio="xMidYMid meet">
<metadata>
Created by potrace 1.16, written by Peter Selinger 2001-2019
</metadata>
<g transform="translate(0.000000,182.000000) scale(0.100000,-0.100000)"
fill="#000000" stroke="none">
<path d="M10 1796 c0 -25 3 -26 54 -26 92 0 86 36 86 -514 0 -555 7 -516 -93
-516 -54 0 -57 -1 -57 -25 l0 -25 258 0 c141 0 286 5 321 11 45 7 67 7 75 -1
6 -6 79 -10 193 -10 l183 0 0 24 c0 20 -6 24 -47 30 -91 12 -106 57 -44 139
39 52 91 151 91 175 0 9 46 12 199 12 l198 0 52 -137 c28 -76 51 -146 51 -156
0 -20 -37 -37 -81 -37 -24 0 -29 -4 -29 -25 l0 -25 215 0 215 0 0 24 c0 20 -6
24 -48 30 -26 3 -57 13 -69 21 -15 11 -78 158 -209 488 -103 259 -191 476
-195 480 -6 8 -85 -3 -141 -19 -10 -3 -40 -61 -79 -154 l-63 -150 -13 51 c-40
158 -156 267 -348 330 -65 21 -90 23 -372 27 l-303 4 0 -26z m561 -42 c82 -19
173 -75 213 -133 63 -90 92 -237 83 -411 -12 -231 -67 -339 -209 -411 -99 -50
-257 -74 -322 -49 l-26 10 0 493 0 494 23 11 c33 16 159 14 238 -4z m746 -394
c47 -118 87 -221 90 -227 4 -10 -36 -13 -179 -13 l-185 0 8 48 c4 26 25 88 47
137 21 50 58 137 82 194 24 58 46 98 48 90 3 -8 43 -111 89 -229z"/>
<path d="M2552 1253 c-44 -15 -111 -72 -131 -110 -25 -48 -32 -116 -18 -170 8
-29 10 -50 6 -48 -17 11 -39 -9 -39 -34 0 -33 36 -95 100 -176 l50 -63 0 -100
c0 -116 -27 -282 -70 -435 -16 -59 -30 -110 -30 -114 0 -22 31 41 140 287 67
151 127 277 132 278 55 21 100 109 119 235 6 39 22 94 35 121 66 137 -6 294
-151 335 -52 14 -90 13 -143 -6z m186 -532 c-35 -81 -67 -141 -75 -141 -22 0
-86 36 -109 62 -12 13 -25 44 -29 71 -3 27 -13 66 -20 88 l-14 39 42 -22 c57
-30 146 -30 205 1 24 12 46 29 49 37 3 8 7 13 10 11 2 -3 -24 -68 -59 -146z"/>
<path d="M0 480 l0 -80 62 0 c50 0 66 4 85 22 l23 21 0 -21 c0 -18 6 -22 30
-22 l30 0 0 68 0 67 33 -65 c29 -59 35 -65 66 -68 41 -4 48 3 77 70 l23 53 1
-52 c0 -64 13 -73 104 -73 59 0 66 2 66 20 0 18 -7 20 -54 20 -30 0 -58 5 -61
10 -4 6 17 10 54 10 54 0 61 2 61 20 0 18 -7 20 -61 20 -37 0 -58 4 -54 10 3
6 31 10 61 10 48 0 54 2 54 20 0 20 -5 20 -111 18 l-112 -3 -20 -52 c-11 -29
-22 -51 -26 -49 -3 2 -15 27 -26 55 l-19 51 -58 0 c-53 0 -58 -2 -58 -22 l0
-21 -23 21 c-19 18 -35 22 -85 22 l-62 0 0 -80z"/>
<path d="M610 540 c0 -18 7 -20 55 -20 30 0 55 -4 55 -10 0 -5 -19 -10 -43
-10 -53 0 -67 -13 -67 -62 0 -34 3 -38 25 -38 16 0 25 6 25 15 0 8 4 15 9 15
5 0 28 -7 51 -15 56 -20 60 -19 60 10 0 19 -5 25 -22 26 l-23 0 23 16 c26 18
29 55 6 77 -11 12 -35 16 -85 16 -62 0 -69 -2 -69 -20z"/>
<path d="M808 549 c-25 -14 -24 -65 1 -79 11 -5 38 -10 60 -10 23 0 41 -4 41
-10 0 -5 -25 -10 -55 -10 -48 0 -55 -2 -55 -20 0 -18 7 -20 69 -20 50 0 74 4
85 16 15 14 16 14 16 0 0 -10 9 -16 25 -16 24 0 25 3 25 60 0 53 2 60 20 60
18 0 20 -7 20 -60 l0 -60 30 0 30 0 0 60 c0 53 2 60 20 60 13 0 20 7 20 20 0
19 -7 20 -95 20 l-95 0 0 -40 c0 -37 -2 -40 -19 -30 -11 5 -38 10 -60 10 -23
0 -41 5 -41 10 0 6 25 10 55 10 48 0 55 2 55 20 0 18 -7 20 -67 20 -38 0 -76
-5 -85 -11z"/>
<path d="M1180 545 c-19 -22 -21 -96 -4 -122 13 -21 23 -23 89 -23 68 0 75 2
75 20 0 18 -7 20 -60 20 -33 0 -60 4 -60 10 0 6 27 10 60 10 53 0 60 2 60 20
0 18 -7 20 -60 20 -33 0 -60 4 -60 10 0 6 27 10 60 10 53 0 60 2 60 20 0 18
-7 20 -74 20 -54 0 -77 -4 -86 -15z"/>
<path d="M1669 243 c-1 -56 -1 -57 -11 -23 -14 51 -36 72 -72 68 -27 -3 -32
-8 -38 -43 -10 -60 1 -115 23 -115 15 0 19 10 21 63 l3 62 14 -48 c17 -60 50
-85 86 -69 15 7 25 8 25 2 0 -6 11 -10 25 -10 16 0 25 6 25 15 0 21 66 21 74
0 5 -15 56 -22 56 -7 -1 4 -13 39 -28 77 -26 67 -29 70 -64 73 -35 3 -37 2
-56 -50 -10 -29 -22 -60 -25 -68 -3 -8 -6 18 -6 58 -1 70 -2 72 -26 72 -24 0
-25 -3 -26 -57z"/>
<path d="M1973 292 c-75 -3 -83 -5 -83 -22 0 -11 7 -20 15 -20 12 0 15 -13 15
-60 0 -57 1 -60 25 -60 24 0 25 3 25 60 0 53 2 60 20 60 18 0 20 -7 20 -60 0
-53 2 -60 20 -60 18 0 20 7 21 73 0 39 3 65 6 57 3 -8 14 -38 25 -67 30 -80
80 -82 112 -3 19 47 30 53 21 11 -10 -46 21 -71 90 -71 52 0 55 1 55 24 0 23
-4 25 -52 29 l-53 3 53 2 c48 2 52 4 52 26 0 23 -4 25 -52 29 l-53 3 53 2 c44
2 52 5 52 21 0 17 -9 20 -67 23 -101 5 -120 1 -127 -27 -3 -13 -11 -37 -17
-52 l-11 -28 -17 49 c-20 59 -29 62 -148 58z"/>
<path d="M849 269 c-10 -19 -49 -127 -49 -136 0 -11 52 0 56 12 8 20 63 20 70
0 7 -16 54 -21 54 -5 0 15 -42 124 -53 138 -16 20 -65 15 -78 -9z"/>
<path d="M1120 270 c0 -13 7 -20 20 -20 18 0 20 -7 20 -60 0 -53 2 -60 20 -60
18 0 20 7 20 60 0 53 2 60 20 60 20 0 24 -10 20 -61 -2 -43 31 -59 122 -59 70
0 78 2 78 19 0 19 1 19 50 0 l50 -19 0 26 c0 18 -6 28 -20 31 l-21 6 21 14
c22 16 27 52 8 71 -8 8 -54 12 -140 12 -110 0 -128 -2 -137 -17 -10 -17 -10
-17 -11 0 0 14 -10 17 -60 17 -53 0 -60 -2 -60 -20z"/>
<path d="M50 35 l0 -25 1180 0 1180 0 0 25 0 25 -1180 0 -1180 0 0 -25z"/>
</g>
</svg>
